HIERARCHY
ROOT Hips
{
	OFFSET 0.000000 0.000000 0.000000
	CHANNELS 6 Xposition Yposition Zposition Xrotation Yrotation Zrotation
	JOINT Spine
	{
		OFFSET 0.000000 0.042231 0.063346
		CHANNELS 3 Xrotation Yrotation Zrotation
		JOINT Spine1
		{
			OFFSET 0.000000 0.014667 0.083179
			CHANNELS 3 Xrotation Yrotation Zrotation
			JOINT Spine2
			{
				OFFSET 0.000000 0.007361 0.084141
				CHANNELS 3 Xrotation Yrotation Zrotation
				JOINT Spine3
				{
					OFFSET 0.000000 0.000000 0.084462
					CHANNELS 3 Xrotation Yrotation Zrotation
					JOINT Neck
					{
						OFFSET 0.000000 -0.031673 0.221713
						CHANNELS 3 Xrotation Yrotation Zrotation
						JOINT Head
						{
							OFFSET 0.000000 -0.020167 0.114371
							CHANNELS 3 Xrotation Yrotation Zrotation
							End Site
							{
								OFFSET 0.000000 0.000000 0.000000
							}
						}
					}
					JOINT RightShoulder
					{
						OFFSET -0.029161 -0.048602 0.157471
						CHANNELS 3 Xrotation Yrotation Zrotation
						JOINT RightArm
						{
							OFFSET -0.144834 0.000000 0.000000
							CHANNELS 3 Xrotation Yrotation Zrotation
							JOINT RightForeArm
							{
								OFFSET -0.274949 0.000000 0.000000
								CHANNELS 3 Xrotation Yrotation Zrotation
								JOINT RightHand
								{
									OFFSET -0.254725 0.000000 0.000000
									CHANNELS 3 Xrotation Yrotation Zrotation
									JOINT RightHandEnd
									{
										OFFSET -0.068160 0.000000 0.000000
										CHANNELS 3 Xrotation Yrotation Zrotation
										End Site
										{
											OFFSET 0.000000 0.000000 0.000000
										}
									}
									JOINT RightHandThumb1
									{
										OFFSET -0.027264 -0.045440 -0.018176
										CHANNELS 3 Xrotation Yrotation Zrotation
										End Site
										{
											OFFSET 0.000000 0.000000 0.000000
										}
									}
								}
							}
						}
					}
					JOINT LeftShoulder
					{
						OFFSET 0.029161 -0.048602 0.157471
						CHANNELS 3 Xrotation Yrotation Zrotation
						JOINT LeftArm
						{
							OFFSET 0.144834 0.000000 0.000000
							CHANNELS 3 Xrotation Yrotation Zrotation
							JOINT LeftForeArm
							{
								OFFSET 0.274949 0.000000 0.000000
								CHANNELS 3 Xrotation Yrotation Zrotation
								JOINT LeftHand
								{
									OFFSET 0.254725 0.000000 0.000000
									CHANNELS 3 Xrotation Yrotation Zrotation
									JOINT LeftHandEnd
									{
										OFFSET 0.068160 0.000000 0.000000
										CHANNELS 3 Xrotation Yrotation Zrotation
										End Site
										{
											OFFSET 0.000000 0.000000 0.000000
										}
									}
									JOINT LeftHandThumb1
									{
										OFFSET 0.027264 -0.045440 -0.018176
										CHANNELS 3 Xrotation Yrotation Zrotation
										End Site
										{
											OFFSET 0.000000 0.000000 0.000000
										}
									}
								}
							}
						}
					}
				}
			}
		}
	}
	JOINT RightUpLeg
	{
		OFFSET -0.086512 0.000000 -0.025273
		CHANNELS 3 Xrotation Yrotation Zrotation
		JOINT RightLeg
		{
			OFFSET 0.000000 0.000000 -0.433119
			CHANNELS 3 Xrotation Yrotation Zrotation
			JOINT RightFoot
			{
				OFFSET 0.000000 0.000000 -0.404688
				CHANNELS 3 Xrotation Yrotation Zrotation
				JOINT RightToeBase
				{
					OFFSET 0.000000 -0.126496 -0.046041
					CHANNELS 3 Xrotation Yrotation Zrotation
					End Site
					{
						OFFSET 0.000000 0.000000 0.000000
					}
				}
			}
		}
	}
	JOINT LeftUpLeg
	{
		OFFSET 0.086512 0.000000 -0.025273
		CHANNELS 3 Xrotation Yrotation Zrotation
		JOINT LeftLeg
		{
			OFFSET 0.000000 0.000000 -0.433119
			CHANNELS 3 Xrotation Yrotation Zrotation
			JOINT LeftFoot
			{
				OFFSET 0.000000 0.000000 -0.404688
				CHANNELS 3 Xrotation Yrotation Zrotation
				JOINT LeftToeBase
				{
					OFFSET 0.000000 -0.126496 -0.046041
					CHANNELS 3 Xrotation Yrotation Zrotation
					End Site
					{
						OFFSET 0.000000 0.000000 0.000000
					}
				}
			}
		}
	}
}
MOTION
Frames: 14
Frame Time: 0.033333
0.114678 -0.941024 0.884085 -4.127300 -4.925100 -7.412300 -0.233400 4.002100 -0.418100 0.046900 -0.556300 -0.009900 2.062400 -0.569900 0.897100 0.962500 -0.311300 0.332300 -3.023200 0.588600 3.813600 -2.751100 5.840700 3.722300 3.869300 -4.635700 5.610500 -3.010300 -52.379300 11.471600 0.000000 0.000000 38.069000 -32.163700 -4.939200 -7.021400 0.000000 0.000000 0.000000 0.000000 0.000000 0.000000 11.271800 4.349900 -5.908200 12.558200 46.061300 -25.718800 0.000000 0.000000 -48.989900 -39.219700 -3.499700 2.956000 0.000000 0.000000 0.000000 0.000000 0.000000 0.000000 -12.768500 6.846700 -39.256600 5.622600 0.000000 0.000000 -0.039500 7.013600 -2.767800 -1.729000 0.000000 0.000000 8.713500 7.225000 18.816400 9.561100 0.000000 0.000000 -18.042400 10.963600 24.123400 -4.620800 0.000000 0.000000 
0.105235 -0.959899 0.885777 -3.843200 -3.756400 -6.745000 -0.289000 2.806400 -0.411700 -0.074300 -0.737600 -0.061300 2.446300 -0.866100 0.397100 0.988500 -0.260500 0.225400 -3.544100 0.521400 3.851100 -2.495100 5.805700 3.897200 3.771900 -5.206700 5.802200 -3.854800 -52.088500 10.825800 0.000000 0.000000 38.207500 -31.655200 -4.656300 -7.025200 0.000000 0.000000 0.000000 0.000000 0.000000 0.000000 11.041400 4.855600 -6.164600 12.244800 45.696200 -25.407800 0.000000 0.000000 -48.196100 -39.403000 -3.096800 2.631700 0.000000 0.000000 0.000000 0.000000 0.000000 0.000000 -12.218200 5.755900 -37.586900 6.890500 0.000000 0.000000 -0.267000 7.459300 -5.314500 2.783200 0.000000 0.000000 6.600800 5.059400 15.267800 16.090600 0.000000 0.000000 -20.027000 10.071700 28.496100 -6.629400 0.000000 0.000000 
0.095407 -0.978141 0.888472 -3.549700 -2.930700 -6.104300 -0.340100 2.008300 -0.414300 -0.120400 -0.720000 -0.102800 2.633300 -1.242800 -0.125300 0.965900 -0.275400 0.186400 -3.893300 0.238400 3.646900 -2.296300 5.648800 4.079900 3.654000 -5.813100 5.907700 -4.362500 -51.867900 10.609400 0.000000 0.000000 38.002100 -31.144900 -4.432100 -6.925800 0.000000 0.000000 0.000000 0.000000 0.000000 0.000000 10.862300 4.874500 -6.579000 12.227400 45.547300 -25.394200 0.000000 0.000000 -46.929300 -39.891300 -2.543800 2.170300 0.000000 0.000000 0.000000 0.000000 0.000000 0.000000 -11.468200 4.758900 -36.574300 7.864900 0.000000 0.000000 -1.587100 6.491600 -7.671500 4.074600 0.000000 0.000000 3.473400 2.958100 13.920900 24.367800 0.000000 0.000000 -20.111000 11.453000 30.712700 -9.784500 0.000000 0.000000 
0.085047 -0.995843 0.890712 -3.284400 -2.607500 -5.495000 -0.349500 1.624900 -0.374400 -0.049700 -0.480200 -0.121700 2.552100 -1.450400 -0.550000 0.894000 -0.305500 0.188900 -4.091600 -0.264900 3.183600 -2.177400 5.372400 4.138700 3.596800 -6.269600 5.838400 -4.406400 -51.926700 10.730400 0.000000 0.000000 37.975600 -30.762400 -4.210500 -6.884200 0.000000 0.000000 0.000000 0.000000 0.000000 0.000000 10.666300 4.412300 -7.034900 12.598300 45.277200 -25.647600 0.000000 0.000000 -45.723200 -40.661600 -1.986000 1.789100 0.000000 0.000000 0.000000 0.000000 0.000000 0.000000 -10.345900 3.937200 -36.725800 8.093300 0.000000 0.000000 -3.222300 6.283100 -8.350600 3.567100 0.000000 0.000000 -0.580600 1.035300 13.868000 33.847400 0.000000 0.000000 -17.160300 12.605700 31.914600 -13.351400 0.000000 0.000000 
0.074618 -1.012469 0.892043 -2.958200 -2.122000 -4.890200 -0.315300 1.031900 -0.204300 0.026900 -0.312500 -0.121700 2.486700 -1.462400 -0.878700 0.830200 -0.242400 0.124800 -4.485300 -0.771100 2.659700 -2.100200 5.113900 4.005600 3.537400 -6.573600 5.740300 -4.130800 -51.957300 10.907600 0.000000 0.000000 38.542700 -30.657100 -3.955700 -7.016900 0.000000 0.000000 0.000000 0.000000 0.000000 0.000000 10.380400 4.026200 -7.398300 12.916600 44.603900 -25.829500 0.000000 0.000000 -45.116800 -41.420100 -1.565700 1.659000 0.000000 0.000000 0.000000 0.000000 0.000000 0.000000 -9.125500 2.805200 -38.116100 7.671400 0.000000 0.000000 -4.571900 6.754000 -7.333300 3.296600 0.000000 0.000000 -5.269300 -1.022000 13.956100 43.010100 0.000000 0.000000 -11.392400 10.549400 33.632500 -16.039200 0.000000 0.000000 
0.065306 -1.028080 0.892924 -2.610300 -1.312000 -4.365500 -0.261000 0.153800 0.080800 0.046600 -0.346900 -0.131100 2.610200 -1.420700 -1.071300 0.830900 -0.136600 0.043400 -5.089500 -1.065800 2.226800 -2.139100 4.947300 3.709700 3.452000 -6.759600 5.749000 -3.866900 -51.637800 10.980000 0.000000 0.000000 39.285100 -30.916900 -3.772800 -7.155500 0.000000 0.000000 0.000000 0.000000 0.000000 0.000000 10.008700 4.098900 -7.670000 12.769700 43.846800 -25.816400 0.000000 0.000000 -44.997100 -41.720900 -1.313400 1.766800 0.000000 0.000000 0.000000 0.000000 0.000000 0.000000 -7.992900 1.403500 -40.091900 7.114700 0.000000 0.000000 -5.739300 6.661500 -6.016000 3.450500 0.000000 0.000000 -9.885200 -3.029500 13.759700 50.101700 0.000000 0.000000 -6.535000 7.207600 35.551800 -17.314600 0.000000 0.000000 
0.057970 -1.043755 0.894136 -2.442000 -0.856000 -4.073900 -0.174000 -0.390900 0.349500 0.056900 -0.410200 -0.125200 2.805000 -1.358100 -1.004300 0.873600 -0.077200 0.038000 -5.493900 -1.189100 1.890900 -2.276700 4.829500 3.347000 3.391900 -6.905000 5.868000 -3.998700 -51.130200 10.829500 0.000000 0.000000 39.389300 -31.329400 -3.827600 -7.059000 0.000000 0.000000 0.000000 0.000000 0.000000 0.000000 9.636000 4.482800 -7.918300 12.215800 43.499200 -25.810700 0.000000 0.000000 -44.786900 -41.362900 -1.167900 1.988400 0.000000 0.000000 0.000000 0.000000 0.000000 0.000000 -6.745200 0.465100 -41.821600 6.648300 0.000000 0.000000 -6.844200 5.896700 -5.010200 3.347200 0.000000 0.000000 -13.612200 -4.223100 13.685500 53.979100 0.000000 0.000000 -6.364600 5.641100 35.823900 -17.295500 0.000000 0.000000 
0.052342 -1.060331 0.895970 -2.475100 -1.073600 -4.088800 -0.102100 -0.416200 0.544700 0.128400 -0.346900 -0.094400 2.899100 -1.158700 -0.671600 0.899400 -0.065200 0.095600 -5.471300 -1.268300 1.659700 -2.313900 4.722800 3.034200 3.356400 -7.054300 6.047100 -4.634200 -50.843200 10.378100 0.000000 0.000000 38.691400 -31.526300 -4.091700 -6.779800 0.000000 0.000000 0.000000 0.000000 0.000000 0.000000 9.314800 4.905900 -8.108900 11.631000 43.534500 -25.958400 0.000000 0.000000 -44.244600 -40.623400 -1.057600 2.210000 0.000000 0.000000 0.000000 0.000000 0.000000 0.000000 -5.307900 0.268000 -43.009000 6.173400 0.000000 0.000000 -7.844800 5.174000 -3.896500 3.075900 0.000000 0.000000 -16.134200 -4.357200 14.150300 54.173500 0.000000 0.000000 -9.369400 6.083800 34.217400 -15.879200 0.000000 0.000000 
0.047574 -1.077618 0.897834 -2.566400 -1.399700 -4.252900 -0.027800 -0.407400 0.718400 0.235400 -0.266700 -0.068600 2.868600 -0.843700 -0.305600 0.883500 -0.038600 0.127300 -5.221000 -1.279300 1.596800 -2.239300 4.658500 2.853100 3.294100 -7.105600 6.237200 -5.420600 -50.888600 9.749400 0.000000 0.000000 37.862000 -31.480500 -4.332500 -6.577400 0.000000 0.000000 0.000000 0.000000 0.000000 0.000000 9.092300 5.233900 -8.171600 11.309200 43.553300 -26.231400 0.000000 0.000000 -43.710900 -40.032000 -0.949500 2.407800 0.000000 0.000000 0.000000 0.000000 0.000000 0.000000 -3.839900 0.204900 -43.670600 5.639300 0.000000 0.000000 -8.713300 4.651000 -2.941800 3.096900 0.000000 0.000000 -17.704600 -4.021100 14.898100 50.965900 0.000000 0.000000 -11.605100 6.829600 33.041900 -14.356300 0.000000 0.000000 
0.043096 -1.094936 0.898614 -2.492700 -1.214600 -4.322500 0.020600 -0.786400 0.918700 0.326400 -0.310300 -0.051800 2.741400 -0.587000 -0.151800 0.860900 0.019300 0.088200 -5.010800 -1.148500 1.688600 -2.301400 4.665000 2.812800 3.248600 -6.907300 6.351900 -5.805500 -51.077400 9.343000 0.000000 0.000000 37.537500 -31.530300 -4.348600 -6.585600 0.000000 0.000000 0.000000 0.000000 0.000000 0.000000 9.005500 5.349700 -8.134500 11.322000 43.416200 -26.614500 0.000000 0.000000 -43.522000 -39.867000 -0.854400 2.580400 0.000000 0.000000 0.000000 0.000000 0.000000 0.000000 -2.556100 -0.393800 -43.551300 5.123400 0.000000 0.000000 -9.530900 4.115000 -3.151700 3.268200 0.000000 0.000000 -18.638200 -3.840600 15.484200 44.943500 0.000000 0.000000 -12.337200 6.883200 33.535900 -13.939200 0.000000 0.000000 
0.038557 -1.112380 0.897814 -2.218100 -0.413300 -4.253100 -0.009300 -1.567300 1.141600 0.370500 -0.435700 -0.041000 2.566100 -0.485100 -0.223200 0.863900 0.056500 0.037700 -4.852500 -0.947800 1.818900 -2.630100 4.721800 2.869000 3.328300 -6.484100 6.325100 -5.678000 -51.283000 9.361100 0.000000 0.000000 37.687800 -31.811000 -4.163700 -6.683500 0.000000 0.000000 0.000000 0.000000 0.000000 0.000000 9.018100 5.189200 -8.100600 11.556300 43.334900 -27.056800 0.000000 0.000000 -43.593400 -39.962700 -0.821400 2.688800 0.000000 0.000000 0.000000 0.000000 0.000000 0.000000 -1.406200 -1.674600 -42.554500 4.614200 0.000000 0.000000 -10.352400 3.604300 -4.520800 3.241100 0.000000 0.000000 -18.868000 -4.058400 15.937100 36.558600 0.000000 0.000000 -12.401000 7.543600 33.650200 -14.122700 0.000000 0.000000 
0.034244 -1.130501 0.896117 -1.880400 0.638400 -4.209800 -0.110000 -2.434300 1.288400 0.314100 -0.546700 -0.049100 2.464800 -0.509400 -0.318600 0.888700 0.051800 0.023600 -4.699000 -0.817400 1.927900 -2.958200 4.793300 2.979900 3.482000 -6.120400 6.236500 -5.455500 -51.434100 9.510500 0.000000 0.000000 37.916400 -32.056800 -3.960600 -6.713500 0.000000 0.000000 0.000000 0.000000 0.000000 0.000000 9.083700 4.955000 -8.098100 11.741000 43.442100 -27.363200 0.000000 0.000000 -43.667600 -40.016600 -0.864800 2.687500 0.000000 0.000000 0.000000 0.000000 0.000000 0.000000 -0.277500 -3.166700 -41.251600 4.193800 0.000000 0.000000 -11.214300 3.252700 -5.896700 3.168800 0.000000 0.000000 -18.333200 -4.414300 16.797200 26.368900 0.000000 0.000000 -10.748800 9.820500 30.828700 -14.310500 0.000000 0.000000 
0.030869 -1.149538 0.894156 -1.540400 1.630700 -4.346500 -0.307200 -3.191900 1.242700 0.195900 -0.609700 -0.046800 2.464800 -0.575300 -0.304400 0.920900 0.015400 0.054600 -4.522800 -0.793000 2.025100 -3.073300 4.835100 3.110700 3.576800 -6.023900 6.196400 -5.486100 -51.485500 9.457500 0.000000 0.000000 37.976000 -32.084700 -3.896000 -6.664300 0.000000 0.000000 0.000000 0.000000 0.000000 0.000000 9.195300 4.892800 -8.068200 11.780800 43.641500 -27.441300 0.000000 0.000000 -43.656300 -39.966600 -0.950500 2.575700 0.000000 0.000000 0.000000 0.000000 0.000000 0.000000 0.778600 -4.413700 -40.227200 4.079400 0.000000 0.000000 -12.256600 3.038700 -6.711100 3.308700 0.000000 0.000000 -17.300400 -4.551500 18.419300 15.534700 0.000000 0.000000 -6.383000 13.204100 25.344900 -14.201000 0.000000 0.000000 
0.028560 -1.169914 0.891667 -1.361100 2.575800 -4.641900 -0.465800 -3.890500 1.062700 0.071800 -0.605100 -0.043700 2.461200 -0.658500 -0.208300 0.957400 -0.034000 0.117400 -4.172300 -0.818900 2.081200 -3.142900 4.790900 3.195100 3.626200 -6.027100 6.158200 -5.684400 -51.594000 9.246900 0.000000 0.000000 37.842000 -32.027000 -3.982600 -6.577700 0.000000 0.000000 0.000000 0.000000 0.000000 0.000000 9.392900 4.875100 -7.968600 11.882700 43.905500 -27.489900 0.000000 0.000000 -43.629800 -39.913200 -1.055800 2.452000 0.000000 0.000000 0.000000 0.000000 0.000000 0.000000 1.917500 -5.373900 -39.348400 4.432000 0.000000 0.000000 -13.654300 2.810300 -7.468700 3.448100 0.000000 0.000000 -16.111500 -4.548600 20.363300 6.610500 0.000000 0.000000 -1.629600 17.091700 19.842900 -13.118300 0.000000 0.000000 
